  <svg fill="none" role="img" viewBox="0 0 97 24" xmlns="http://www.w3.org/2000/svg">
        <path
            d="M15.8 1.5C14 .5 11.8 0 9.2 0H0v24h4.6V4H9c2.4 0 4.2.6 5.5 2 1.3 1.4 2 3.4 2 6v12h4.7V12c0-2.4-.5-4.6-1.4-6.4a9.7 9.7 0 0 0-4.1-4.1ZM35.6 0C33 0 30.8.5 29 1.5a9.7 9.7 0 0 0-4.1 4.1c-1 1.8-1.4 4-1.4 6.4 0 2.4.5 4.6 1.4 6.4a9.7 9.7 0 0 0 4.1 4.1c1.8 1 4 1.5 6.6 1.5h9.2V0h-9.2Zm4.6 20h-4.6c-2.3 0-4.1-.6-5.4-2-1.3-1.4-2-3.4-2-6s.7-4.6 2-6c1.3-1.4 3-2 5.4-2h4.6v16ZM50.2 24H48V0h4.5v19.4c4.7-.4 5.4-2.1 6.7-5.5v-.1l5-13.8h5l-5.7 15.4v.2c-1 2.2-1.8 4.3-3.8 6-2.1 1.6-5 2.4-9.5 2.4Z"
            fill="#0037FF"
        />
        <path
            d="M79.3 14.4c1.5 0 2.9-.3 4-.9a5.9 5.9 0 0 0 3-3.8v-.5l.1-.4v-.5l.1-.2V6.7c.1-1.3.5-2.2 1.1-2.9a4 4 0 0 1 3.1-1.2h2.5v9.2h-2.5c-.5 0-2 0-3-1.2l-.5-.6a16.5 16.5 0 0 1-1 3.2 6 6 0 0 0 1.8.8 8.1 8.1 0 0 0 2.7.4h5.5V0h-5.5c-1.6 0-2.9.3-4 .9-1 .5-1.9 1.4-2.4 2.5l-.7 1.8v.5l-.1.4v1.6c-.2 1.3-.5 2.2-1.1 2.9-.8.8-1.8 1.2-3.1 1.2h-2.5V2.6h2.5c.5 0 2 0 3 1.2l.5.6a16.8 16.8 0 0 1 1-3.2A6.2 6.2 0 0 0 82 .4a8.1 8.1 0 0 0-2.7-.4h-5.5v14.4h5.5Z"
            fill="#000F40"
        />
    </svg>